<?xml version="1.0" encoding="UTF-8"?>
<svg id="Layer_1" data-name="Layer 1" xmlns="http://www.w3.org/2000/svg" xmlns:xlink="http://www.w3.org/1999/xlink" width="28" height="28" viewBox="0 0 28 28">
  <defs>
    <style>
      .cls-1 {
        clip-path: url(#clippath);
      }

      .cls-2 {
        fill: none;
      }

      .cls-2, .cls-3, .cls-4, .cls-5 {
        stroke-width: 0px;
      }

      .cls-6 {
        mask: url(#mask);
      }

      .cls-4 {
        fill: #fee500;
      }

      .cls-5 {
        fill: #fff;
      }
    </style>
    <clipPath id="clippath">
      <rect class="cls-2" x="7" y="8.17" width="14" height="11.67"/>
    </clipPath>
    <mask id="mask" x="-43.91" y="-37.56" width="118.32" height="75.37" maskUnits="userSpaceOnUse">
      <g id="mask0_523_4559" data-name="mask0 523 4559">
        <path class="cls-5" d="m-43.91-37.56h118.32V37.81H-43.91V-37.56Z"/>
      </g>
    </mask>
  </defs>
  <rect class="cls-4" x="0" y="0" width="28" height="28" rx="14" ry="14"/>
  <g class="cls-1">
    <g class="cls-6">
      <path class="cls-3" d="m14,8.29c-3.79,0-6.86,2.18-6.86,4.88,0,1.73,1.27,3.25,3.18,4.12l-.65,2.17c-.02.07,0,.14.05.19.04.03.09.05.14.05.04,0,.08-.01.12-.04l2.78-1.69c.4.05.82.08,1.24.08,3.79,0,6.86-2.18,6.86-4.88s-3.07-4.88-6.86-4.88Z"/>
    </g>
  </g>
</svg>